<svg id="Layer_1" data-name="Layer 1" xmlns="http://www.w3.org/2000/svg" viewBox="0 0 327.16 537.46"><defs><style>.cls-1{opacity:0.82;}</style></defs><g id="Raggruppa_697" data-name="Raggruppa 697" class="cls-1"><g id="Raggruppa_695" data-name="Raggruppa 695"><path id="Tracciato_17378" data-name="Tracciato 17378" d="M230.37,496.68a3.23,3.23,0,0,0,1.94-2.16c.91-3.41,3.43-6.07,4.22-9.54.18-.8,1-1.47.54-2.43a1.3,1.3,0,0,1,.54-1.75c3.09-1.94,3.37-5.24,4-8.32.15-.76.05-1.22.76-2,1.23-1.27,2.06-3.11,0-4.73-.65-.52,0-.61.4-.66a2.83,2.83,0,0,0,2.32-2.86c.12-3.29,1.28-6.3,2.23-9.3.57-1.81-.88-1.3-1.4-2.1.92-.67,2.64-.06,2.8-2.06.12-1.54-.6-2.18-2-3.05,3.53-.53,3.85-3.07,3.9-5.23.1-3.48,1.41-6.76,1.32-10.22s.43-6.74.15-10.13a49.46,49.46,0,0,1,.3-6c.2-5.22-.93-10.16-2.16-15.16-.51-2.1-1.58-4.16-1.19-6.49.25-1.4-1.54-1.83-1.75-3.06-.28-1.61-1.28-1.47-2.49-1.2-.5.11-.93-.53-.68-.86,1.2-1.6-.38-2.43-1-3.38-1.51-2.42-3.62-4.51-5.12-6.84-1.71-2.66-4.06-4.76-5.68-7.51a30.28,30.28,0,0,1-3.39-7.91c-.52-1.95-.57-4.08-1.29-5.79-1-2.34.17-4.73-1-7-.36-.72.12-2.16.66-3,1.72-2.71,1.72-5.85,2.54-8.77a3.21,3.21,0,0,1,1.41-2.18l-.09-.08a4.28,4.28,0,0,0,.69,3.33c-1,.16-1.75.72-1.76,1.71,0,2.13-.5,4.29.11,6.93,2-3,1.6-5.92,1.55-8.74a.71.71,0,0,0,.76-.49,45.81,45.81,0,0,1,3.67-8.87,9.5,9.5,0,0,0,1.4-4c-.84-.31,4.66-9.31,6.69-10.75,1.77-1.25,3.43-2.51,5.65-2.49a56.28,56.28,0,0,0,8.6-.63c2.46-.35,4.72,1.6,6.8,3.1,3.34,2.41,5.52,5.88,8.26,8.85a31.64,31.64,0,0,1,6.64,10.65c.79,2.13,2.47,4.14,3.91,6.1,1.08,1.48.45,3.42,1.48,5s.06,3.42.13,5.15c.05,1.34.9,2.78-.14,4.1,1.65.33,1.06,1.9,1.49,2.88.3.68.48,1.8-1.07,1.76-1,0-1.21.85-1.09,1.7.2,1.42.44,2.83.67,4.25l.09-.09c-1.3.73-2.43,1.34-.55,2.86,1.1.89-.64,1.72-.64,2.71a12.68,12.68,0,0,0-.25-1.5.67.67,0,0,0-.76-.55.81.81,0,0,0-.27.11c-.73.35-1.91,3.1-1.44,3.7.93,1.16.17,1.62-.71,1.79s-1.18.52-1.76,1.32c-1.48,2-2,4.79-4.52,6.13a4.44,4.44,0,0,0-1.7,2.75c-.37,1.19-.15,2.62-2.06,2.83-.5.06-.66,1.11.3,1.44.48.16,1.16-.18,1.47.64-2.37,1.16-5.84,1.27-5.43,5.27l-.05-.09c.17.92.64,1.82.74,2.67.12,1.08,0,1.77.63,2.05-1.42,1.42-3.54,2.22-3.78,4.69-.12,1.18-.08,1.77,1.23,1.57.89-.13,1.24.24,1.17,1.1-.47.44-.76-.14-1.14-.18-2.05-.21-2.55.05-2.2,2,.18,1-.3,2,.24,3.12s1.3,2.52-.62,3.7c-.69.42-.5,2.39-.57,3.66-.05.87.49.35.83.22,1.11-.43.93.33.55.75-3.46,3.86-2.64,8.82-3.36,13.36a6.9,6.9,0,0,1-.39,2.1c-1.4,2.25-1.16,4.9-1.9,7.3-.57,1.88.54,3.9.64,5.88,0,.29.25.58-.07.84-.81-.43-.22-1.84-1.66-2-1,1.7-.82,3.87-1.47,5.8-.45,1.34,1.13.41,1.6.86.06,1.41-1.67,1.39-2.05,2.7-.43,1.52-2.1,2.77.09,4.23.26.17.38,1.52-.76,1.23-1.64-.43-1.66.33-1.47,1.56.16,1,.62,2.09-1.07,2.58-.45.13-.55,1.81-.62,2.8,0,.47.68,1.2.53,1.41-.5.64-.86-.57-1.26-.34a1.82,1.82,0,0,0-.79,2.21c.11.41.68,1.1.48,1.11-2.72.24-1.78,2.94-2.9,4.24-1.31,1.51-1.21,1.61-.12,3.67-.49,1.24-2-.58-2.42.81a26,26,0,0,0-.45,2.64l.09-.06c-.68,1.94-2.85,3.52-1.5,6,.05.09-.14.38-.28.51-4.07,3.59-5.82,8.78-9,13-1.1,1.46,1.17,1.13,1.18,2.21-3.69-.74-4.21,2.7-5.94,4.54-3.33,3.54-6.3,7.43-10,10.57l-.55-.42c1.13-1.64,2.9-3.17,3.26-5,.46-2.3,2.92-2.77,3.33-4.81.64-.33,1.57,0,2.2-1.34-1.17.88-1.51-.13-2.18-.36s-1.14-.44-1.52,0-.12,1.25.21,1.84c-1.87-.7-2.59.76-3.42,1.89-1.78,2.42-4.24,4.08-6.52,6,1.32-1.94,2.33-4,4.29-5.53a28.3,28.3,0,0,0,5.34-6.31c.64-.91,1.25-1.84,1.9-2.75a11.27,11.27,0,0,0,1.88-2.7c.39-1.24-1.42-1.55-1.64-2.67a1.74,1.74,0,0,1,.11-.63c1.3-.16,1.59,1.21,2.68,1.79.43-1.18,1.7-1.94,1.36-3.45Zm15-113.67c-.48,1.86,1,1.57,1.95,1.7s2.09.3,2.32-1.12c.11-.73.11-1.49.17-2.23a.86.86,0,0,1,.21.29c2.64-.5.84,1.9,1.85,2.66,1.45-.66,3.08-1.73,4.54.26a1,1,0,0,0,1.19.3c.34-.17.8.05,1-.5.63-1.72,1.54-2.46,2.14-1.77,1.19,1.38,2.62.7,3.93.95l.05,0-6.38,2.31c.49.65,1.81,1,1.52,1.2-2.2,1.92-.18,3.65.14,5.31a1.74,1.74,0,0,1-1.3.59,4.39,4.39,0,0,0-2.44.9c1.56,1.34-1,1.9-.57,3.14.68,2-.28,4.21.54,6.25.13.33.17.7-.23.8s-.58-.13-.92-.43c-1.84-1.58-.95-2.87.55-4.27-1.28-.27-3.46.36-2.37-1.48.8-1.36.65-1.92-.28-2.67-1.16-.93.2-.84.37-1.25.1-.23-.33-.7-.53-1.07.72-.48,2,.3,2.32-1.07-.39,1.1-2.29-.84-2.23,1.16a2.79,2.79,0,0,0-1.81,3.49h0a50.66,50.66,0,0,1,1.66,7.69c.14.9.65.95,1.4,1,1.42.05,2.32.62,1.83,2.3-.12.39,0,1.13.2,1.28,2.55,1.5-.31,2.65-.2,4a15.51,15.51,0,0,0-2.11-4.56c-.51,2.84.22,5.44-.13,8-.12.87.8,1.52,1.58,2,.26.16.59.18.2.85-1.25,2.11-1.25,3.22-.68,5.7.08.37-.07.5-.29.78-1.31,1.63-1.33,2.83.16,4.06.6.49.8,1,.23,1.14-2.38.77-1.69,2.81-2,4.44-.24,1.3.56,2.7-.15,3.94-2.08,3.67-1.72,8-3.28,11.83a3.3,3.3,0,0,0,.12,2.92c.15.25,1.06.65.09.75-1.95.2-1.71,1.79-2.11,2.95-1.35,3.86-1.57,8-3.19,11.84-.62,1.48-.82,3.24,1.19,4.29,1,.53.57,1.54.34,2.4-.61-.57-.13-2-1.87-1.78a2,2,0,0,0-2,1.75c-.46,3.23-2.55,5.76-3.65,8.73-1.48,4-3.95,7.57-5,11.76a3.69,3.69,0,0,1-1.12,1.55c-2.3,2.48-4.26,5.12-4.88,8.66-.2,1.14.41,1,.78,1.27.61.42.94,0,1.15-.62s-.54-1.54.42-2c.59.14.27,2.36,1.26.73,1.1-1.8,3.18-3.21,2.94-5.72a1.38,1.38,0,0,1,.87-1.31c2.15-1.32,2.06-4.1,3.82-5.7,1.2-1.09,1.62-2.83,2.2-4.18,1-2.38,3.42-4.22,3-7.21-.07-.56.52-1.19.8-1.79l1.16-4.26c.63.08.9-.47,1.34-.72,1.48-.86-.06-2.52,1.25-3.63a6.3,6.3,0,0,0,1.86-4.14,10.77,10.77,0,0,1,1.32-4.31,9.67,9.67,0,0,0,1-3.75c0-.7.42-1.28-.43-1.58-.67-.23-1.37-.19-1.64.65-.17.56-.46.69-1.1.38.18-1.26.74-1.73,2.14-1.5s2-.79,2.56-2.08a2,2,0,0,0-.8-2.66l-.07,0-.09.09a1.83,1.83,0,0,0,.58-.32c2.19-2.48,3.32-5.28,2.17-8.56a.93.93,0,0,1,.19-1.1c1.86-2.22,2.24-3.75,1.54-6.44-1.11.82-.37,2-.54,3.64-.57-1.49-1.43-1-2.83-1.3a2.21,2.21,0,0,0,1.56-2.72,2,2,0,0,0-.14-.39c-.18-.59-1.09-1.2-.43-1.76.9-.77.56.9,1.24.82.2,0,.6,0,.6,0,.1-1.92,3.9-2.56,1.8-5.3-.36-.48,0-1.33.7-1.66s1.2-.95,1-1.57c-.7-2,.86-3.74.74-5.66-.09-1.49.78-2.85.65-4.28a28.63,28.63,0,0,1,.09-6.41,29.34,29.34,0,0,1,1.23-6.43,12.55,12.55,0,0,0,1.09-3.8c.06-1.48,1.48-2.88.79-4.15-.84-1.55,1.17-2,.79-3.19-.09-.27.1-.64-.24-.89-1.07-.08-.15,1.23-.92,1.36-1-2.36-1-2.36,1.22-3,.54-.15,1.14-.26,1.41-.8,1.36-2.73,4.11-4.54,4.95-7.6l0,0c1.17-.39,1.53-1.53,2.12-2.41,1.88-2.8,3.55-5.74,5.53-8.46a3.13,3.13,0,0,0,.43-3.48l-.07.11c2.4.94.84-2.1,2.21-2.2-.38-1.14-1.76.5-2.09-.76,1.92-.45,2.36-2.1,2.75-3.65,1.26-5,1.5-14.74-1-20.24a12.34,12.34,0,0,0-1.34,6.5c0,5.09-.51,7-2.9,11.53-.31.58-.83,1.1-.65,1.83.22.91,0,1.5-1,1.74a3.62,3.62,0,0,0-2,1.69c-1.68,2.46-3.74,4.7-4.45,7.76a13.58,13.58,0,0,1-1.5,3c-.36.7-.68,1.5-1.67,1.35-1.17-.17-1-1.26-1.35-2-.66-1.48.57-2.51.72-3.8A29.2,29.2,0,0,0,262,350.87a31.9,31.9,0,0,1-2.81-4.92c-.19-.5-.62-1.32-.9-1.3-1.69.09-1.74-.46-1-1.73a1,1,0,0,0-.45-1.27.7.7,0,0,0-.19-.06c-.73-.25-1,.39-1.22.85a10.46,10.46,0,0,0-.68,1.87,27.18,27.18,0,0,1-2.31,5.9c-3.71,6.73-3.84,13.8-2.17,21.07.25,1.08.54,2.16.81,3.23.16.65.52,1.45-.14,1.86-.94.59-1.58-.46-2.32-.82-.27-.14-.25-.8-.43-1.19a43.37,43.37,0,0,0-8.45-11.49c-1.32-1.36-3-2.57-4.2-4.1-2.82-3.5-6.72-6.38-6.75-11.6.45,3.38-.83,6.92,1.33,10a2.29,2.29,0,0,1,.1,1.27c-.32,4.39,2.15,7.75,4.07,11.34.63,1.18,2.55.89,2.52,1.87-.09,2.84,3.39,3.54,3.4,6.21,0,.3.5.89,1,.59,2.4-1.47,1.56-.06,1,1.12-.15.32,0,.87.19.83,1.85-.38,1.51,1.59,2.42,2.17a3.28,3.28,0,0,1,.48.43Zm23.72-19.4c.62-.09.7.26.63.75s-1,.34-.44.81a1.3,1.3,0,0,0,1.52-.21.76.76,0,0,0,.1-1.08l-.07-.08c-.54-.65-1.2-.2-1.81-.15a2.13,2.13,0,0,1,2.55-.88c1.6.29,1.5-.76,1.2-1.84.06.56.24,1.12.91.95s.52-.81.54-1.33c.43,0,1.05.29,1.2-.22.55-1.84,2.87-3,2.1-5.33a.79.79,0,0,1,.37-.84c1.55-1.15,1.62-2.87,1.62-4.55a25.39,25.39,0,0,1,.63-7.16,6.54,6.54,0,0,0-.24-4.59,57.9,57.9,0,0,0-9.59-15.49c-1.46-1.62-2.26-4.23-5.09-4.3,0-2.07-1.7-3-3-4.13-1.57-1.44-1.69-1.44-3,.38-.95,1.34-1.15,3.55-2.09,4.3-2.16,1.72-1.54,3.49-1,5.3a4.43,4.43,0,0,1-.09,2.92c-.81,2-.26,4,.06,5.92.08.51.77.9.32,1.5a2,2,0,0,1-.75.64c-.35.15-.59-.1-.75-.43a19.59,19.59,0,0,1-1.1-8.07c0-.18-.28-.41-.26-.59.28-1.91-.27-3.87.28-5.77.15-.53.41-1.26.19-1.61-1-1.58-.32-2.9.63-4.11-2.45-1.46-5.9-1.4-7.51.43-2.95,3.33-6.24,6.55-8.11,10.58-2.2,4.75-4.9,9.4-5.51,14.73-.31,2.69-1.29,5.36-.69,8.2,1-.37,0-2,1.75-1.89-.95,1.4.05,3.1-1.4,4.8,3.13-1.39,4.55.23,5.75,2.31-.4.6-.9.47-1.3.63-.58.23-1.55.31-1.36,1.14.24,1,1,.42,1.63.23s.83.15,1,.59c.84,2.12,3,3.43,3.3,5.86,1.92-1.06,1.92-1.06,4.42.13.18.67-.29,1.6.85,2,.1-.71.47-1.5.25-2.06-.36-.89-.79.06-1.19.21.37-1,1.22-1.87.85-3.13-.23-.74.37-1.88-1.07-2,.69-.35,1.41-.65,2.06-1.06a1.07,1.07,0,0,0,.43-.82c-.17-1.93,1.22-3.23,1.87-4.77-.3-.77-1.35-.24-1.65-1.35,2.73.71,3.19-1.2,4-3.06.68-1.6,0-3.38,1-4.84.46-.69.52-1.76,1.7-1.8a2.38,2.38,0,0,1,2.36,1.52c.78,1.59,1.55,3.17,2.37,4.73.39.74.53,1.83,1.75,1.68,1.7-.22,1,.38.43,1.09-.47.55-.06,1,.35,1.41,1.84,1.82,2.76,4.6,5.95,5.18-2.62,1.63-2.61,1.63-2,4.2.25,1.08.53,2.16.7,3.26.13.86.83.93,1.44,1.17ZM250,387.81l-3.41-2.2c1.55,2,1.55,2,3.42,2.2Zm-8.14-69.09c.17-.12.42-.21.46-.35a.58.58,0,0,0-.23-.49c-.37-.13-.59.1-.58.45,0,.13.23.26.35.39Zm15.05,71.6a.79.79,0,0,0-.84-.75H256c-.18,0-.36.17-.55.25a9.67,9.67,0,0,0,1,.82c.06,0,.31-.21.47-.32Zm-7,.27c.73-.08,1.32.36,1.87-.17,0-.05-.1-.42-.24-.53-.72-.54-1.11,0-1.62.7Zm-4.61-26c0-.39-.16-.43-.38-.2a2.21,2.21,0,0,0-.4.46c-.13.24,0,.46.23.35s.4-.44.55-.61Z"/></g><g id="Raggruppa_696" data-name="Raggruppa 696"><path id="Tracciato_17379" data-name="Tracciato 17379" d="M162.43,23.32a2.81,2.81,0,0,0-2,1c-1.73,2-4.26,1.19-6.33,2-.93.36-1.48-1.23-2.58-1-.15,1.11,1.68,1.2,1.15,2.81-2.79,0-4.4-2.46-7.28-3.22a3.72,3.72,0,0,1,3.88-.51c.81.3,1.38,1.15,2.37,1.05-2.61-2.8-3.84-3-6.94-1.11a3.45,3.45,0,0,1-1.9.31c-5.1.31-7,1.73-8.6,6.38-1,3.07-1.05,3-4.32,3.26-3.09.24-6,1-7.57,4.06-.76,1.41-1.87,1.48-3.11,1-2.26-.94-4.47-2-6.73-2.92-1-.41-2-1.14-3.16-.84l0-.08c1,1.32,2.67,1.46,4,2.14,2.33,1.18,4.75,2.21,7.3,3.38-2.74,1.84-2.69,1.74-5.11.32a9.7,9.7,0,0,0-2.28-.82c-2.46-.62-5.09-.53-7.43-1.66a36.84,36.84,0,0,0-6.92-3,28.53,28.53,0,0,0-6.13-1.26,15.18,15.18,0,0,1-1.65-.07A121.1,121.1,0,0,0,79,33.11c-3.76-.17-7.44.55-11.11,1-1.6.21-2.76-1.28-4.09-.61-1.78.89-3.59.37-5.38.54-2,.19-4,.9-6-.08-.37-.19-.81.29-1,.31-2.57.3-4.86-.48-7.62-2a14.45,14.45,0,0,1,1.7-.4c8.44-.57,16.89-.22,25.33-1,8.6-.83,17.12.44,25.62,1.68,3,.44,5.8,1.68,8.86,1.59l-.07.08c-2.64-2-5.87-1.87-8.87-2.44a115.29,115.29,0,0,0-19-2.07c-5-.11-10,.53-15.06.79a177.58,177.58,0,0,1-27.77-.54c-6.22-.65-11.49-3.49-17-5.75-2.28-.93-4.56-1.84-6.86-2.69a8.24,8.24,0,0,0-4.64-.23c-.55.12-1.11.22-1.26.9a1.33,1.33,0,0,0,.58,1.47c1.49.93,2.87,2.08,4.66,2.44l-.07.07c-.31-1.87-2.35-1.85-3.28-3,1.92,0,6.33,1,8.09,2.66,5.62,5.14,12.75,6.18,19.73,7.67C47,36.1,59.57,36.05,72.21,34.78a64.34,64.34,0,0,1,35.5,6.12,52.59,52.59,0,0,0,6.46,2.78c4.4,1.47,7.28,0,8.8-4.42a5.22,5.22,0,0,1,5.41-3.73c4.39.25,6.5-1.47,7.37-5.75.59-2.87,4.69-4.9,7.56-4.12s5.73,2,6.9,5.26a5.17,5.17,0,0,0,1.42,2.23c2.86,2.32,4.45,5.56,6.46,8.49a23,23,0,0,0,8.23,7.25,7.48,7.48,0,0,0,3.83,1c3.62-.1,6.12,1.83,8,4.69a38.49,38.49,0,0,1,3.49,6.86c3.09,7.87,5.13,15.93,4.3,24.5a13.71,13.71,0,0,1-1.2,4.16,73.53,73.53,0,0,0-4.12,13.8c-1.17,5.29-.7,10.68.11,16,.15,1,.4,1.81-.28,2.8-1,1.41-.22,2.51,1.12,3.3a7.37,7.37,0,0,1,1.93,1.28c1.37,1.57,2.72,2.59,4.8,1.12.68-.48,1.47-.15,2.25.09,4.41,1.38,5,1.16,7.87-2.53a2.54,2.54,0,0,1,.52-.41c5.45,1.89,5.39,8.75,2.87,12.62a56,56,0,0,0-3.59,6.76,6.62,6.62,0,0,0,.93,6.92c1.92,2.37,3.33,4.83,2.85,8.08a5.53,5.53,0,0,0-.55-7.07c-3.11-3.66-3.3-6.28-.76-10.23.67-1,1.52-1.93,2.24-2.92,4.29-5.9,3.21-9.74-1.56-14.26-.59-.56-1.79-.61-1.42-1.91a2.41,2.41,0,0,1,2-2c1.6-.3,2.74-1.43,4-2.36a1.69,1.69,0,0,1,2.39,0,1.44,1.44,0,0,1,.22.27,14.85,14.85,0,0,0,6.71,4.28,4.66,4.66,0,0,1,3.12,5.61c-.31,1.15-.42,2,.68,2.55a2.76,2.76,0,0,1,1.58,3.58v0a2.06,2.06,0,0,0,1.13,2.68l.11,0c1.18.55,1.92-.12,2.56-1a14.57,14.57,0,0,1,5.44-4.21c3.26-1.66,5.29-4.8,6.79-8.08.81-1.79,1.54-2.4,3.68-2,3.05.59,6.23.69,8.48-2.42,1-1.46,5.2-1.17,6.58.39a4.63,4.63,0,0,0,4.45,1.74c3-.46,4.88,1,6.48,3.21,2.9,4.09,3,4.42.24,8.6-.84,1.27-1.16,2.47-.41,3.73a18.38,18.38,0,0,1,2.36,12.59,1.94,1.94,0,0,0,.14,1c.05.15.33.21.7.42.71-4.29.8-8.51-1.33-12.29-1.42-2.53-1.51-4.51.4-6.63a12,12,0,0,0,.89-1.31c.9-.17,1.27.51,1.81.84,2.5,1.54,4.78,1.56,7.13-.27a5,5,0,0,1,3.28-1.24c2.49,0,3.31-1.34,1.93-3.44-1.14-1.71-.63-2.28.74-3.31a7.54,7.54,0,0,0,2.64-5.63c.69-8.72,1.27-17.43-2.8-25.66a12.23,12.23,0,0,1-1.27-7.63c.67-4.42-.6-8.88-1.94-13.17-1.11-3.58-3.21-7-1.94-11a1.42,1.42,0,0,0-.21-1,87.51,87.51,0,0,1-3.88-8.12c-.78-1.8-2.06-1.74-3.65-.28-.25.22-.44.52-.7.72-1,.73-1.84.5-1.93-.64-.38-5-3.58-8.24-7.05-11.24a42.17,42.17,0,0,1-4.1-3.44c-1.13-1.27-2.55-1.68-3.88-.9s-1.93.26-2.79-.59c-2.78-2.7-3.25-2.7-6.37-.06a3.39,3.39,0,0,1-4.09.73c-3.73-1.54-7.6-1.77-10.95,1.2a2.06,2.06,0,0,1-2.9.29,2.42,2.42,0,0,1-.32-.32c-.4-.4-.85-.73-1.26-1.1-3-2.72-3.5-2.67-6.28.75a2.82,2.82,0,0,0,2.09-.92c1.07-.92,2-.68,2.9.3.52.57,1.2,1,1.72,1.57,1.3,1.41.92,2.61-.95,3.17a3.29,3.29,0,0,1-2.5-.19c-1.75-.84-2.26-2.56-3.15-4-2.33-3-3.45-3-6.1-.38a17.13,17.13,0,0,0-3.51,6c-.94,2.36-1.7,2.58-4,1.29-2.57-1.46-3.59-1-3.76,2-.07,1.25-.26,2-1.58,2.49-2.76,1.14-3.45,2.4-2.91,5.19.48,2.52.69,5.06,1,7.59a5.71,5.71,0,0,1-.9,4.14,77.07,77.07,0,0,0-6.66,11.94,3.42,3.42,0,0,1-.6-3,30.28,30.28,0,0,0-2.28-14.07c-1.6-4.14-2.88-8.45-5.7-12-2.28-2.9-4.81-5.3-8.89-5a2.37,2.37,0,0,1-2.38-1.53A12.7,12.7,0,0,0,167.74,38a2.08,2.08,0,0,1-.4-2.47,10,10,0,0,0,1.15-3.46c-2.37,2.19-2.78,5.19-3.25,8.12a12.57,12.57,0,0,1-1.38,5,1.4,1.4,0,0,1-1.12-1.61c0-.81-.35-1.37-1.17-1.25-1.71.26-2.33-1-3.12-2.06-1.85-2.45-2.89-5.49-5.45-7.44a2,2,0,0,1-.57-2.14,4.4,4.4,0,0,1,5-3.56c.44.05,1,.33,1.22-.11C159.55,25.33,161.8,25.16,162.43,23.32ZM281.61,127c-2.19.13-2.43-.09-1.71-1.61a2.34,2.34,0,0,1,.68-1.06,6.57,6.57,0,0,0,2.6-5.45c0-.7-.16-1.59.9-2,.31-.1.74-.88.63-1-1-1.59.11-3.29-.31-5-.35-1.44.56-3.27.06-5.05a25.18,25.18,0,0,1-.8-5.11,21,21,0,0,0-1.75-7.48c-2.37-5.19-5-10.3-6.3-15.91-.15-.64-.7-1.3.18-2a28.9,28.9,0,0,1,3.62,7.83A63.13,63.13,0,0,0,282.55,92c4.44,8.67,4.44,17.82,3.33,27.11-.27,2.22-1.05,4.31-3.4,5.41-1,.46-2,1.25-1,2.64a12.16,12.16,0,0,1,1,1.69c.15.35.29.92-.31,1.13s-.83-.18-.9-.65a2.59,2.59,0,0,1,.27-2.25ZM244.29,40.19c-.88-1.36-1.13-2.59.62-3.5a8.34,8.34,0,0,0,1-.86c1.59-1.1,3.59-.52,3.85,1.37.41,3,1.11,6,0,9.06-1.42-.42-1.86-1.5-2.49-2.55-.81-1.37-1.23-3.18-3.13-3.65,1.17,3,3.36,5.53,3.44,8.93A1.42,1.42,0,0,0,249,50.26a1.75,1.75,0,0,0,1.75-.75,5.81,5.81,0,0,0,1-3.82c-.16-2.66,1.2-4.94,1.82-7.41a.64.64,0,0,1,1-.38c.29.2.25.43,0,.8-1.3,2.31-1.19,2.74,1,4a20.84,20.84,0,0,1,6.54,6.1c1.86,2.67,1.29,4-1.81,5.28-.09,0-.3-.23-.45-.35-.19-1,1.16-.56,1.18-1.64a12.08,12.08,0,0,1-2.74-.46A7.63,7.63,0,0,0,252,53.53c-.33.31-1.3,1.2-1.58.41-.68-2-2.07-1.07-3-.8-1.46.41-2.23-.72-3.33-1-1.33-.39-.71-1.39-.61-2.22.07-.61-.26-.86-.75-.54-.89.56-1.3-.89-2.23-.39a5,5,0,0,0,3.43,5.39c1,.38,2,.59,1.68,2a8.54,8.54,0,0,1,1.34-.08c.94.09,2.13-.45,2.67.76s-.26,1.92-.87,2.72A8,8,0,0,0,246.94,64c-.4,5.34-3.55,10.09-3.32,15.57a4,4,0,0,1-.48,1.59,1.37,1.37,0,0,1-1.36.78,7.05,7.05,0,0,1-7.47-5.29c-.79-2.39-2.3-4.78-.27-7.41.5-.66.29-2,.21-3-.2-2.78-.95-5.5-.94-8.31A1.7,1.7,0,0,0,231.84,56h0c-.86-.05-1.37.69-1.66,1.45-1.27,3.34-2.49,6.7-3.8,10-.49,1.24.16,2.39.07,3.59-.12,1.53-1.94,1.4-2.54,2.78-.93,2.16-2,4.07-5.57,3.3-3.79-.82-5-1-4.31-4.68.93-5.26,0-10.2-1.74-15.09-.45-1.25-.31-2,1.25-1.8s2.7-.82,3.69-1.9c.6-.66,1.25-1.43.72-2.38a2.43,2.43,0,0,0-2.35-1,5,5,0,0,0-2.5.9,6.91,6.91,0,0,1-3.45,1.08c-1.84,0-2.3.73-1.9,2.56.25,1.19.88,2.33.18,3.56a46.14,46.14,0,0,1-2.8,4.87,59.18,59.18,0,0,0-11,25.41,11.5,11.5,0,0,0-.21,3.31c.13,1-2.25,1.31-.55,2.52-.36,4.36-.91,8.69-1.12,13.08s-.72,4.4.3,8.06c.71,2.51,1.84,4.65,4.46,5.68a6.71,6.71,0,0,1,1.33,1l-.07-.06c.71-.28,1.21,0,.84.69a27.31,27.31,0,0,1-2,2.7c-1.77,2.52-2.62,2.83-5.56,1.88-1.17-.38-2.36-1-3.53-.23-2,1.28-3,0-3.93-1.42a2.5,2.5,0,0,1,1.79-1,2.61,2.61,0,0,0,2.2-1.84c.25-1.11-.81-1.91-1.68-2.23-1.8-.67-2.14-2.15-2.4-3.67a19.85,19.85,0,0,1-.28-4,68.3,68.3,0,0,1,4-20.64c2.38-6.84,5.45-13.44,8.34-20.1,1-2.37,1.72-5.1,4.57-6.2.26-.1.43-.51.6-.8,1.67-2.9,3.57-5.68,4.66-8.88.21-.64,1-1.32.21-2.05-3.59.22-4.74,3.68-7.21,5.63-.39-2.27-.78-4.24-1-6.23-.3-2.26.62-3.58,2.81-4.18a31.8,31.8,0,0,1,3.58-.79c3.09-.46,5.06-2,5.73-5.19a11.58,11.58,0,0,1,3.42-6c2-1.93,3-1.81,4.4.58S220,43,221.55,45.61c-2.09-1.36-3.07-.09-4,1.16a1.19,1.19,0,0,0,.12,1.55c.43.47.83.46,1.42,0a32,32,0,0,0,5-3.81c2.06-2.1,3.62-4.85,7-6.12a10.13,10.13,0,0,0,.37,4.7c1.16,3,.66,4.42-2,6.32a17,17,0,0,0-3,3c-1.53,1.83-3.19,3.66-6.16,3.13a3.63,3.63,0,0,0-4.13,2.15c-.6,1.75-.2,3.78.17,5.64.13.6,1,.81,1.69.68.38-.47-.08-.81-.15-1.2-.54-3.35.18-5.12,2.69-5.37a8.62,8.62,0,0,0,6.1-3.6,31.11,31.11,0,0,1,4.57-4.75,4.89,4.89,0,0,0,1.45-5.48c-1.37-4.86-1-5.29,4.16-4.84.07,0,.14.14.27.29-.06.26,0,.65-.22.86a6.16,6.16,0,0,0-.64,7.47,3,3,0,0,1,.4,1.28c.14,3.28,2,5.55,4.3,7.6a5.12,5.12,0,0,0-1.5-2.94,6.31,6.31,0,0,1-1.56-3.61c-.31-1.63.33-3.47-1.45-4.82-.63-.48-.27-1.92.29-2.83.4-.67.92-1.28,1.26-2,.75-1.56.07-2.58-1.67-2.63-.72,0-1.46.71-2.41-.23,2.75-.9,5-.22,7.29,1,1,.58,1.67,1.88,3.08,1.85Zm-42.52,78.57c.42-.33.64-1.12,1.4-.65.09,0,.08.42,0,.58-.42.72-.86.15-1.3,0a1,1,0,0,1-.23,1.34l-.13.08c-1.58,1-3,.78-4.6-.57a10.28,10.28,0,0,1-3.62-7.63c-.26-4.27.51-8.47.69-12.71.43-10.55,2.8-20.57,8.25-29.71,1.32-2.21,2.82-4.32,5.22-5.52.91,1-.34,1.2-.39,1.8-.5,6-2.09,11.86-3.21,17.78a110.58,110.58,0,0,0-2,16.42c-.13,3.46-.3,6.81-1.93,9.93a5.89,5.89,0,0,0-.31,1.5c-.71,2.93.9,5.09,2.19,7.38Zm10.76-2.59,3.1-.21A5.49,5.49,0,0,0,214,118.7c-.45,1.09-1.08.7-1.25-.35-1.65.62-2.33-2.12-4.07-1.2a3.68,3.68,0,0,1-.2-.93c0-1.53-.85-2.81-1.26-4.22-1.18-4.15-.94-8.41-1.25-12.62A93.78,93.78,0,0,1,210.25,64c.34-1.07.38-2.36,1.68-3.2a18.88,18.88,0,0,1,.92,10.2,8,8,0,0,0,.47,5.36c.92,1.84,2.48,2.43,4.63,2.48,2.69.07,3.66,1.78,2.67,4.36-.53,1.38-.54,2.82-1,4.18a22.42,22.42,0,0,0-.84,3.8c-.24,1.42-.43,2.85-.62,4.28s-.33,2.65-.51,4,.09,3.36-.73,4.16c-1.29,1.26.81,2.46-.45,3.43-.19.14,0,.84.1,1.27.59,3.61-.86,6.17-4,7.87ZM238.6,84.74c.89-.84,1.7-1.8,3.17-1.32.53.18,1.38.11,1.55-.32.8-2.07,3.52-3.48,2.27-6.24-.69-1.54-.26-2.59.76-3.9.68-.87,1.94-1.69,1.81-3-.17-1.73.88-3,1-4.7,1.57.67,1.54,2,1.78,3.17.91,4.44,1.16,9,1.76,13.43a92.35,92.35,0,0,1,0,22.29,40.29,40.29,0,0,1-4.59,14.94c-1.81,3.33-6,4.17-9.45,1.91.2-.07.4-.21.56-.17.82.2,1.53.71,2.36-.31s0-1.92-.31-2.72-.92-1,.11-1.62c.55-.3.42-1.1.1-1.52-1.88-2.45-1.07-5.73-2.64-8.27,1-1.6-.12-2.76-1-3.84-.95-1.24.16-2.94-.47-3.67-2-2.31-.28-5.25-1.68-7.59-.26-.44,0-1.73.64-1.49,2.4.85,1.61-1.24,1.88-2,.34-1-.24-2.14.4-3.16-.38-.38-1.38,0-1.3-.63.05-.41.8-1,1.53-1a2.33,2.33,0,0,1-.35,1.76Zm18.94-43.51a2.73,2.73,0,0,1,2.63,0c3.52,2.25,5.53,5.73,7.32,9.35a2.37,2.37,0,0,1-.09,1.62c-.59,1.65.46,1.89,1.66,2.12s1.82-.4,2.56-1.17c1.27-1.31,2.13-1.24,2.65.37a42.8,42.8,0,0,0,3.13,6.64c.44.86,1.21,2.19-1,1.5-.51-.15-.55.63-.44,1a20.18,20.18,0,0,0,1.16,3.09,36.78,36.78,0,0,1,3.57,11.33c.07.59.3,1.17-.35,1.42a1.31,1.31,0,0,1-1.76-.48,12.08,12.08,0,0,0-.73-1.49c-1.08-1.47-1.09-3.39-2.35-4.87-1.75-2.07-4.55-3.86-3.32-7.36.09-.24-.19-.64-.36-.92a26.91,26.91,0,0,0-6.29-7.75c-.58-.45-1.26-1.17-2-.35-.58.62-.07,1.36.28,1.83,2.41,3.28,2.91,7.48,5.92,10.67a21.56,21.56,0,0,1,5.07,10.42,42.26,42.26,0,0,0,3.86,10.7c4.07,8,4.69,16.5,4,25.15-.37,4.61-1.79,9-6.64,11.23-.86.38-.88,1.17-.9,2s.9,1.36.31,2.14c-1.06.8-2.68-.65-3.63,1,1.88.88,3.49.86,5-.45a.78.78,0,0,1,1.1.07.76.76,0,0,1,.08.11,1,1,0,0,1,.06.92,2.42,2.42,0,0,1-2.13,1.83c-3.14.51-5.36-.62-6.81-4.1a15.56,15.56,0,0,0-3.86-5.33,3.31,3.31,0,0,1-1.3-1.77c2.18-1,2.37-3.43,3.23-5.38,2-4.44,4.29-8.78,4.38-13.84.07-3.53.28-7.06,0-10.61-.29-4.24-1.65-8.41-1.53-12.58s-1.77-7-3.9-10a1,1,0,0,0-1.11-.52c-.51.15-.56.64-.63,1.07a10.55,10.55,0,0,0,0,4c.21.87.37,1.75.5,2.63.22,1.56-1.11,2.42-1.94,3.27s-1.79-.33-2.55-.93c-1.1-.88-2.45-1.44-3.27-2.71-.18,1.47.52,2.31,1.53,3.34,2.49,2.54,5.82,2.39,6.9-.79a6.56,6.56,0,0,0,.4-4.53,23.43,23.43,0,0,1-.65-3.4c2.7,2,4,4.26,3.68,7.38a16.38,16.38,0,0,0,.43,5A87.62,87.62,0,0,1,271,99.57c.09,7.2-3.5,13.26-6.55,19.45a5.86,5.86,0,0,1-1.5,1.78c-1.28,1.1-4.45,1.36-5.72.5-1.64-1.1-1.2-2.63-.91-4.21a48.34,48.34,0,0,0,.77-9.68c-.15-8.38-.11-16.78-1.45-25.09-.78-4.84-1-9.81-2.63-14.47-.81-2.26-.57-4.61-1-6.89a4,4,0,0,1,.86-2.84,1.66,1.66,0,0,1,2.25-.65,1.69,1.69,0,0,1,.7.75,6.58,6.58,0,0,1,.64,6c-1,3.36-1.35,6.8.4,10.1.12-1.78,0-3.57.25-5.34s.51-3.77.92-5.62a8.28,8.28,0,0,0-.36-5.55,5.6,5.6,0,0,0-4.33-3.27,4.12,4.12,0,0,1,1.7-.56,5,5,0,0,1,5.18,4.77,5.43,5.43,0,0,1-.05.9c-.3,2-.66,4-1,5.94a32.83,32.83,0,0,0,.17,8.69,3.44,3.44,0,0,0,.72,1.85c.7.77,1.59,1.29,2.6.31a1.41,1.41,0,0,0,.32-2,1.57,1.57,0,0,0-.34-.34c-2.89-2.38-2.91-5.4-2.18-8.66.66-2.94,1.26-5.9.73-8.93a1.43,1.43,0,0,1,.93-1.8h0c1.62-.8,1.89-2,1.8-3.84-.12-2.4-1.47-3.87-3-5.31a24.37,24.37,0,0,1-3.4-4.3Zm-29.11,91.35c.8-1.34.53-2.92-.58-3-3.34-.32-3-2.57-2.65-4.61,1-5.94.83-12,1.68-18,.39-2.64.47-5.33.67-8,.45-6.11.81-12.24,1.34-18.36A35.27,35.27,0,0,1,230.82,72c1.68,1,1,2.64,1.56,3.82,2.05,4,2.3,8.33,1.9,12.7-.45,4.81-.31,9.38,1.58,14.07a28.11,28.11,0,0,1,.3,21c-1.44,3.78-3.65,7.08-7.73,9Zm-.37-60.66a39.08,39.08,0,0,0-1.74,6c-.84,6.64-1.92,13.24-2.24,20-.41,8.92-1.13,17.83-1.73,26.73a18.18,18.18,0,0,1-.3,2.32,1.67,1.67,0,0,1-1.41,1.28c-.85.14-1-.72-1.22-1.3a30.57,30.57,0,0,1-1.88-8.39c-.31-3.24.41-6.46.42-9.68,0-9.25,2-18.19,4.27-27a19.67,19.67,0,0,1,5.83-9.86ZM166.72,39.19c1.52.47,1.79,1.78,2.38,2.83,1,1.79,2.37,2.89,4.57,2.7,2.44-.2,4.18,1.05,5.8,2.75,3.66,3.85,5.33,8.7,7.1,13.52s2.77,9.48,1.6,14.83c-.45-1,0-1.89-1-2.44-1.82-.91,1.74-.83.47-1.84l-1.85-2.88a3.45,3.45,0,0,1-.74-2.14,6.64,6.64,0,0,0-.34-2.16c-.95-2.91-3-5.17-4.21-7.9a13.19,13.19,0,0,0-6.31-6.87c-1.45-.7-2-3.09-4.24-2.28-.94-2.69-4.58-4.27-3.18-8.12Zm37.92,49.27c.05.89.13,1.77.16,2.65.19,6.69.27,13.39,1.07,20,.19,1.54.47,3.07.67,4.62a1.11,1.11,0,0,1-.78,1.31c-.45.11-.78-.31-1.06-.65a2.94,2.94,0,0,1-.67-1.49c-.59-3.83-1.44-7.62-.95-11.57.61-5,.18-10,1.56-14.91Zm50.67.73c0,9.5,1.37,19.12-.77,28.93a10,10,0,0,1-1.63-3c-.52-1,.77-2,.21-2.46-1.4-1,0-1.71,0-2.54.07-2.46,1.67-4.58,1.51-7.1a67.88,67.88,0,0,1,.68-13.88ZM231.1,58c.52,3,.93,6-.95,8.6-.4.55-.76.77-1.33.59s-.52-.68-.38-1.11c.88-2.7,1.77-5.38,2.66-8.08ZM205.79,47.16l-1.82.4c-1,.23-1.44-.35-1.64-1.17A1.38,1.38,0,0,1,203,44.7c.74-.3,1.17.38,1.58.9s.66.85,1.2,1.56Zm2.89,7c1.15.37,1.84-.77,2.7-.14-.91,2.88-.91,2.88-1.83,3-.24-.76-.49-1.58-.87-2.84ZM216,51.78c.87.83,0,1.18-.31,1.65a1.37,1.37,0,0,1-1.6.78c-.19-.05-.46-.2-.49-.35-.2-.82.47-1.11,1-1.43a14.78,14.78,0,0,1,1.4-.65ZM201.06,60a1.63,1.63,0,0,1-.74,2c-.49.28-.19,1.28-1.34,1.17.66-1.15.88-2.33,2.08-3.16Zm3.05-3.35A2.77,2.77,0,0,1,203,58.55a.5.5,0,0,1-.7-.1.38.38,0,0,1-.08-.17,2.52,2.52,0,0,1,1.92-1.58ZM167,46.13c-.05-.28.08-.33.37-.37.73-.1.64.24.44.71-.11.26.38.74-.05.79-.77.08-.29-.9-.76-1.13Zm85,71.51c.6,0,.87.2.81.55-.12.57-.65.43-1,.42s-.79,0-.6-.41.64-.44.83-.56Zm-66.89-23.4c-.35.64,0,1.59-1.21,2.14a3.35,3.35,0,0,1,1.21-2.13ZM41.28,31.78a2.29,2.29,0,0,1,2.65.61C42.69,32.32,42,32.34,41.28,31.78Z"/><path id="Tracciato_17380" data-name="Tracciato 17380" d="M71.66,50.34c-.55-1.2-1.78-1.15-2.78-1.49-6.47-2.23-13.26-2.87-20-3.9-6.5-1-12.88-2.52-19.29-4-5.52-1.24-9.9-4.48-13.56-8.7-1.53-1.77-3.32-3.32-4.46-5.4A1.4,1.4,0,0,0,10,26.11L10,26c5.42,8.45,12.36,14.78,22.63,16.73,9.75,1.86,19.51,3.64,29.33,5.09,3.31.49,6.34,2.16,9.72,2.41Z"/><path id="Tracciato_17381" data-name="Tracciato 17381" d="M202,22.34c.54,2,3,2.89,3.07,5.3a4.26,4.26,0,0,1-3-1.26c-4.8-3.58-10.39-5.07-16.16-5.87-2-.28-4.05.94-6,1.62a21,21,0,0,0-11.5,10.05c1.65-1,2.73-2.58,4-3.95,6-6.53,13.67-7.93,22-4.83a38.6,38.6,0,0,1,9.29,5.27c.94.69,2,2.07,3.18,1,1.4-1.27-.21-2.4-.9-3.41A11.49,11.49,0,0,0,202,22.34Z"/><path id="Tracciato_17382" data-name="Tracciato 17382" d="M169.13,126.06c.28,1.3,1.48,1.55,2.43,2,2.29,1.16,4.61,2.25,6.94,3.31a12.8,12.8,0,0,1,7.47,8.06c.79,2.55,1.7,5.07,2.63,7.58a15.63,15.63,0,0,0,4.15,6c1.92,1.78,3.81,3.52,2.65,6.63,1.68-2.56,1.6-3.81-.68-6a20.24,20.24,0,0,1-5.37-7.16,57.67,57.67,0,0,1-2.23-6.65c-1.23-4.74-4.36-7.64-8.7-9.44-3.17-1.32-6.08-3.23-9.36-4.32Z"/><path id="Tracciato_17383" data-name="Tracciato 17383" d="M162.31,23.45c1.22,0,2-.93,2.86-1.58,7.61-5.78,16.1-7,25.23-5a10.84,10.84,0,0,0,2.94.49c-3.28-2-7-2.26-10.62-2.18C174.93,15.38,167.82,17.5,162.31,23.45Z"/><path id="Tracciato_17384" data-name="Tracciato 17384" d="M148.92,108c-1.69-4.14-4.78-7.37-7.22-11a41,41,0,0,0-7.55-9.1l.06-.06c-.2.92.49,1.44,1,2C139.52,94.92,143,100.59,147,106c.54.75.7,2,2,2Z"/><path id="Tracciato_17385" data-name="Tracciato 17385" d="M89.09,57.07c-2-2.09-4.86-2.51-7.36-3.52-3.26-1.31-6.47-2.92-10.07-3.22l0-.06c1.31,1.32,3.15,1.53,4.76,2.06,4.29,1.42,8.21,3.78,12.68,4.67Z"/><path id="Tracciato_17386" data-name="Tracciato 17386" d="M149,107.94c.23,1.84,1.84,2.68,2.93,3.85a69.35,69.35,0,0,0,9.13,8.59,5.83,5.83,0,0,0-1.88-2.58c-2.74-2.77-5.46-5.54-8.22-8.28-.6-.59-.94-1.57-2-1.51Z"/><path id="Tracciato_17387" data-name="Tracciato 17387" d="M105.1,65.44c4,2.26,7.59,5.28,12.21,7.87C115,70.7,108.26,66.3,105.1,65.44Z"/><path id="Tracciato_17388" data-name="Tracciato 17388" d="M89.15,57c4.24,2.29,8.7,4.16,13,6.44a39.7,39.7,0,0,0-8.63-5.22c-1.37-.64-2.73-1.53-4.39-1.15Z"/><path id="Tracciato_17389" data-name="Tracciato 17389" d="M169.06,126.13c-1.68-2.57-4.38-3.74-7-5,2.31,1.72,4.24,4,7.06,5Z"/><path id="Tracciato_17390" data-name="Tracciato 17390" d="M193.18,17.3c2.68,1.81,5.26,3.77,8.39,4.79C199,20.12,196.47,18.05,193.18,17.3Z"/><path id="Tracciato_17391" data-name="Tracciato 17391" d="M126.17,79.76a24.33,24.33,0,0,0,6,6l-.06.07c-1.21-2.81-3.46-4.58-6-6.05Z"/><path id="Tracciato_17392" data-name="Tracciato 17392" d="M126.11,79.82c-1.89-2.59-2.23-2.87-6.37-4.86a43,43,0,0,0,6.43,4.8Z"/><path id="Tracciato_17393" data-name="Tracciato 17393" d="M164.6,108.38c-1.42-.29-2.55-1.56-4.27-1.46C162.09,109.07,162.09,109.07,164.6,108.38Z"/><path id="Tracciato_17394" data-name="Tracciato 17394" d="M151.41,100.82c.19,1.52,1.07,1.84,1.68,2.4C153.07,102.25,152.65,101.56,151.41,100.82Z"/><path id="Tracciato_17395" data-name="Tracciato 17395" d="M172.85,105.17c1.34-.67.85-2,1.31-3.44a3,3,0,0,0-1.21,3.5Z"/><path id="Tracciato_17396" data-name="Tracciato 17396" d="M109.32,35.51a4.77,4.77,0,0,0-4.06-1.34l.08-.07a4.74,4.74,0,0,0,4,1.34Z"/><path id="Tracciato_17397" data-name="Tracciato 17397" d="M168.1,107.51a1.15,1.15,0,0,0-1.13,1,.56.56,0,0,0,.38.7l.07,0c.62.1.72-.26.54-.77C167.84,108.1,168.74,107.89,168.1,107.51Z"/><path id="Tracciato_17398" data-name="Tracciato 17398" d="M155.86,104.71c-.45,1.34.92,1.4,1.58,2.25.31-1.63-.53-2-1.69-2.1Z"/><path id="Tracciato_17399" data-name="Tracciato 17399" d="M155.86,104.71l-.11.16c0-.53-.37-.69-.81-.63-.08,0-.23.39-.18.45C155.1,105.08,155.49,104.86,155.86,104.71Z"/><path id="Tracciato_17400" data-name="Tracciato 17400" d="M134.15,87.88a2,2,0,0,0-1.9-2h-.12l.06-.07a2.5,2.5,0,0,0,2,2Z"/><path id="Tracciato_17401" data-name="Tracciato 17401" d="M173,105.23c-.42.12-1,.2-.63.82.2.39.78.74,1.06.41.46-.53-.06-1-.52-1.28Z"/><path id="Tracciato_17402" data-name="Tracciato 17402" d="M267,110a4.43,4.43,0,0,1,1.08-1.8,1.9,1.9,0,0,0,.5-2C268,107.69,266.62,108.37,267,110Z"/><path id="Tracciato_17403" data-name="Tracciato 17403" d="M223.89,68.14c-1.69-.2-1.7,1-1.84,2.16-.1.73.1,1.41-1.06,1.69a5.76,5.76,0,0,1-2.88.25c-.62-.17-.6-.84-.6-1.42,0-1.61,0-3.23,0-4.84,0-.35,1.12-.72-.05-1-.47-.12-1.07,0-1.06.51,0,2.34-.86,4.64-.33,7a2,2,0,0,0,2.13,1.93,1.61,1.61,0,0,0,.48-.08c3.48-.53,3.5-.46,4.11-4.17a3.71,3.71,0,0,1,1-2.06Z"/><path id="Tracciato_17404" data-name="Tracciato 17404" d="M245.65,56.24c-1.6,0-3.2-.53-4.81,0,.47.86,1.3.69,2,.69,1,0,1.77.25,2.07,1.27s.24,1.76-.8,2.23c-.88.4-1,1.41-1.63,2h0C245.67,61.43,246.07,59,245.65,56.24Z"/><path id="Tracciato_17405" data-name="Tracciato 17405" d="M236.87,76.45c.33.8,1.17.4,1.69.7,1.68,1,2.43.49,2.5-1.39,0-.61.94-1,.35-2a9.29,9.29,0,0,1-4.6,2.76Z"/><path id="Tracciato_17406" data-name="Tracciato 17406" d="M223.22,52.39c-1.89.21-1.89.21-1.74-2.32l-2.08,3.09C221.12,54.62,222.19,54,223.22,52.39Z"/><path id="Tracciato_17407" data-name="Tracciato 17407" d="M236.8,76.5c1.28-2.24-.23-3.59-1.76-4.92,1.06,1.47-.19,3.72,1.83,4.87Z"/><path id="Tracciato_17408" data-name="Tracciato 17408" d="M194.28,124.6c.77.71-.65,1.38.13,2.3a1.61,1.61,0,0,0,1.28-1.89l-.06-.22c-.22-.77-.86-.4-1.35-.18Z"/><path id="Tracciato_17409" data-name="Tracciato 17409" d="M241.89,68.9c-1,.65-.94,1.59-.83,2.64.75-.07.44-.78.7-1.1A1.34,1.34,0,0,0,241.89,68.9Z"/><path id="Tracciato_17410" data-name="Tracciato 17410" d="M223.84,68.09a6.89,6.89,0,0,0-.08-3.52,4,4,0,0,0,.11,3.55Z"/><path id="Tracciato_17411" data-name="Tracciato 17411" d="M242.54,62.45a5.87,5.87,0,0,0,.72,3.46c.22-1.26-.54-2.31-.73-3.46Z"/><path id="Tracciato_17412" data-name="Tracciato 17412" d="M229.91,46.68c-.2-.22-.31-.45-.48-.5-.44-.11-.58.2-.55.57a2.22,2.22,0,0,0,.28.58Z"/><path id="Tracciato_17413" data-name="Tracciato 17413" d="M214.4,57.7c-.38.36-.07.77-.08,1.15.52,0,.22-.44.31-.65S214.49,57.87,214.4,57.7Z"/><path id="Tracciato_17414" data-name="Tracciato 17414" d="M194.28,124.61l.3-3.29c-.73,1.52-.13,2.41-.3,3.27Z"/><path id="Tracciato_17415" data-name="Tracciato 17415" d="M198.28,122.35a3.17,3.17,0,0,0-.91-.16c-.39,0-.88,0-1,.53a.55.55,0,0,0,.29.44c.51.16.66-.39,1-.57.18-.1.35-.22.54-.31Z"/><path id="Tracciato_17416" data-name="Tracciato 17416" d="M243.09,47.21a2.11,2.11,0,0,0-2.09-.13c0,.6.53.42.83.5S242.67,47.92,243.09,47.21Z"/><path id="Tracciato_17417" data-name="Tracciato 17417" d="M241.14,44.88c.44,0,.48-.33.62-.6s.1-.45-.18-.5a.53.53,0,0,0-.63.39.66.66,0,0,0,0,.14C240.92,44.49,241.07,44.69,241.14,44.88Z"/></g><g id="Raggruppa_698" data-name="Raggruppa 698"><path id="Tracciato_17418" data-name="Tracciato 17418" d="M253.59,280.67c-2.22-2.06-4.82-2.52-7.78-2.23-4.63.46-9.05-.62-13.37-2.23a3.1,3.1,0,0,1-2-2.53c-.63-3-.68-2.82-3.91-2.88-5.8-.1-10.75-2.1-14.23-7-1.1-1.54-2.19-3.11-4.48-2.63,2-1.44,3.2-3.86,5.64-4.81-.46.87.65,1.94-.19,2.65s1.32.87.13,1.88.89,1.4,1.15,2.28a3.37,3.37,0,0,0,2.13,2.37c-1.18,1.31.63,1.83.86,1.79,1.39-.25,2.22.66,3.1,1.3,1.45,1.07,3.2.81,4.78,1.24,1.34.36,3.16-1.22,3.93-2.52,1.2-2,2.59-4,3.93-5.93,0-.06.36.08.56.12l-.08,0a6.18,6.18,0,0,1-1.55,4.26c-1.43,2-1.41,2.05.4,4,.11.12.26.34.22.46-.4,1.16.44,2,.65,3.06l.11-.08a1.51,1.51,0,0,0-.89,1.45c.26.84,1.21.35,1.85.53a1.75,1.75,0,0,0,2,.05c2.55,0,5.1-.15,7.65-.1.84,0,1.95-.65,2.52.7a.7.7,0,0,0,1,.25.47.47,0,0,0,.13-.11c1.11-1.22,2.74-2.36,3.1-3.8a14.39,14.39,0,0,0,.2-7.4,16.63,16.63,0,0,1-.63-7.35,1.6,1.6,0,0,0-1.09,1.11c-.83,1.87-.86,1.91-2.28.67-.9-.79-1.62-1.29-2.87-.45-.7.46-2.09-.57-2.55.92-1.25-.42-1.28-1.75-2-2.58l.11.09c-.38-1.17-.78-2.33-1.14-3.51-.66-2.23-1.51-2.48-3.45-1.14a12.56,12.56,0,0,0-5.28,7.8,7.61,7.61,0,0,1-2.57,4c.74-2.2,2-3.68.66-5.41-.16-.2.44-.9.48-1.38a13.73,13.73,0,0,0,.12-3.84c-.23-1.12-1.52-1.08-2.5-1.24s-.29-.56-.26-1a10.09,10.09,0,0,0-1.09-5.53,7.07,7.07,0,0,0-2,2.41c-.28.57-.75,1.3-1.34,1.19-2.55-.51-3.59,1.74-5.31,2.74.1-.4.39-.86.27-1.16-.3-.72-.85-.3-1.24,0-3.8,2.57-7.6,5.15-11.35,7.79a5.59,5.59,0,0,0-1.88,2.92c2.21.62,4-.32,5.87-.83-2.35,2.24-5.48,1.6-8.28,2.14-1.28.25-2.71-2.05-2.18-3.42s.94-3,2.32-3.9l-.07-.08c.12.48.1,1,.79,1.17a5.9,5.9,0,0,0,3.93-.66c3.73-1.91,6.95-4.6,10.57-6.68a.79.79,0,0,0,.26-1.3c.83-.41,2.07-.62,2.41-1.28,1.47-2.86,4.34-3.24,6.85-4.28.1,0,.08-.36.14-.66a8.6,8.6,0,0,1-1.23.15c-2.47-.09-2.55-.17-2.75-2.74a16.86,16.86,0,0,1-.11-3.69c.33-2,.77-4.25,3.08-5,1.55-.51,3-1.36,4.72-1.36l.28.63c-.7,1.26-2.07,1.21-3.19,1.65-.67.26-1.61.34-1.7,1.13-.2,1.73-1.9,3.62-.95,4.9.72,1,2.92,1.26,4.6,1.14.83-.06,1.64-.2,2.46-.3-.9.57-1.47,1.61-2.94,1.23-1-.25-1.4.7-1.06,1.66a14.39,14.39,0,0,0,1,1.89c.69-2,1.88-1.45,3-.9,1.4.65,2.68.75,3.78-.56-1,2.17-3,3.39-4.78,4.74-1.29,1-1.37,2-.7,2.8a56.63,56.63,0,0,1,3.69,5.7c.95-2.7,3.11-3.54,4.81-4.85s1-4,2.93-5c.85.53.31,1.17.48,1.49.66,1.22-1.63,1.21-.91,2.52a11.62,11.62,0,0,1,.73,3,3.59,3.59,0,0,0,.27.9c.66,1.29-.49,3.42,1,4,1.13.4,2.74-.52,4.13-.89,2.67-.71,3.5-1.91,3.47-4.75,0-2.59-1.3-4.78-2.07-7.14.44.44.9.87,1.31,1.34.95,1.1,1.9.29,2.85,0a1,1,0,0,0,.92-1.06,20.73,20.73,0,0,1,1.86-5.89c.2,1.87,2.7,3.73-.06,5.64-.35.25-.27,1.17-.35,1.79-.14,1.09-.25,2.19-.37,3.3-.77-.22-.52-.75-.69-1.1a1.52,1.52,0,0,0-1.17-1c-.94-.09-.68.83-.9,1.32-1,2.24-.83,4.56-.71,7,3.82-.5,7.29-1.75,10.95-1,1.17.23,1.57-.55,1.42-1.47-.43-2.55.65-5.48-1.95-7.5-.33-.25-1.21-.74-.48-1.51,1.52.54,2.86,1.7,4.68,1,.54-.21,1,.29,1,.86,0,.18-.61.36-1.12.64a16.19,16.19,0,0,1,4.77,1.92c.79.51,1.42.2,1.49-.81,0-.61.12-1.27-.5-1.7h0l1.25-.15-.07-.06a8.17,8.17,0,0,1,.6.7c1.16,1.66,1,1.66-.51,2.84-.74.58-1.95-.16-2.37,1,2.24,1.46,4.69,2.6,5.88,5,.9,1.8,3.36,1,4.06,2.81.25-.11.62-.16.74-.35,1-1.6,2.66-2.66,2.85-4.9a11.63,11.63,0,0,1,2.17-6.3,2.51,2.51,0,0,0-.25-3.42,23,23,0,0,0-4-2.8,2.25,2.25,0,0,0-2.37-.35c-1.51.91-2.8.23-4.16-.25-1.11-.4-2.23-.78-3.2-1.12-.7.87.8,2-.63,2.24a10.85,10.85,0,0,1-6.54-1c-.1-.05-.06-.39-.08-.6.72-.61,1.31-.1,2,.15,2.8,1.06,3.49.58,3.89-2.28.15-1-.38-1.6-1.05-1.47-1.79.37-3-.63-4.26-1.47,1.54.07,3,1.1,4.58.55.67-.23,1.76-.22,1.77-1,0-2.24,1.48-4,1.86-6.33a43.78,43.78,0,0,0-6.06.06c-1.76.26-2.29-.35-2.26-1.91h0c.11-.34.37-1,.6-.7.89,1.2,1.3.08,1.88-.24a1.31,1.31,0,0,0,.51,1.34,5.24,5.24,0,0,0,6.47-.43,5.25,5.25,0,0,1,2.61-1.37l-.09-.08c-3.46,3.48-3.23,8.39-5.05,12.76,3.16-.16,6-2,9-.65l-.06-.08c.16.4-.8,1.41.51,1.14a24.41,24.41,0,0,1,8,0,22.92,22.92,0,0,0,3.09.21c1.63,0,1.95-.6,1.66-2.63l0,.08c3.16,1.52,3.82,2.36,3.43,4.39-.53,2.8-1.93,4-4.91,4.34-3.43.34-5.83,2-6.87,5.37-.43,1.39-.74,2.82-1.19,4.21-1.06,3.28-2.48,6.26-6.4,6.91-1.08.18-1.5.89-1.87,1.83a17.55,17.55,0,0,1-10.54,10.47c-1.84.67-2.46,1.85-2.2,3.88.22,1.64.68,3.27-.15,4.88a25.62,25.62,0,0,0-1.39-8.68c1.31-1.07,1.47-3.5,3.49-3.58,1.65-.06,2.94-1.35,4.63-1,.63.13,1.12-.27,1.65-.68,3.1-2.37,3.32-5.95,3.7-9.32a4.27,4.27,0,0,0-1.9-3.72c-2-1.39-4-2.8-6.07-4.17-.46-.32-.92-.9-1.57-.38-.6,1,1.53,1.85.18,2.76-1.1.73-1.23,2.8-1.62,2.74-1.45-.21-1.68,2.09-3.35,1.24a5.61,5.61,0,0,0-3.75,0c-2.46.56-2.63.4-1.6,2.58.83,1.77,1.38,3.48.66,5.39-1.67,1.12-.79,2.92-1.14,4.4,0,.09.28.38.39.36,1.84-.29,1.58,1.26,1.9,2.21.68,2,1.24,4,1.85,6,.14.45,0,1.12.83,1.05,2.13-.19,1.8,1.23,1.53,2.47-.16.7-.58,1.35-.16,2.15,1.12-.16,1.1-1.42,1.82-1.95-.92,3.68-2.24,4.28-5.5,2.59a8,8,0,0,1-2.85-2.78c.26.38.7,1.19,1,.52.44-1,1.07-1.94.75-3.23-1-4-1.85-8.08-2.77-12.13a.62.62,0,0,0-.63-.54A42.33,42.33,0,0,0,253.59,280.67Zm24.92-42.37-.17.67c4,1.39,7.88,2.83,11.86,4.14a2.7,2.7,0,0,0,3.21-.88c-1.19-.67-1.18-2.47-2.7-2.81-4-.91-8-1.87-12.2-1.12Zm-23.95,32.45a2.91,2.91,0,0,0-.13.6c0,.49.17,1.26.7.85s-.19-1-.57-1.45Z"/><path id="Tracciato_17419" data-name="Tracciato 17419" d="M228.53,230l-.29-.63c-3.26-1.54-5.27-4.42-7.54-7-.19-.22,0-.58.22-.81l-.1.1a15.06,15.06,0,0,1,2.86-3.05,2.14,2.14,0,0,0,1.31-2c-.07-2.19,1.36-3.14,3.55-4.08-3.33-.63-3.62-3.8-5.7-5.24.53-.13,1.13.52,1.73-.24-2.91-2.56-5.93-4.95-8.6-7.73-.72-.75-1.4-1.54-2.12-2.27a1.47,1.47,0,0,0-2-.1c-.46.4.06.9.23,1.38,1.15,3.12,3.8,4.82,6.25,6.71-1-.32-1.86.36-2.76.24-3.27-.43-4.87,1.69-6.35,4-.42.66-.36,1.69-1.47,1.8l.07,0c.24-2.38,1.63-4.22,3-6,1.6-2.11,2.15-4.1.71-6.56a11.2,11.2,0,0,1-1.13-3.84c-.31-1.84.34-2.64,2.41-3.37,1.53-.54,2.23-.22,3.4,1.55-.8,1.39-.05,2.66.45,3.85.94,2.21,6.7,7.66,9.18,8.88.25-.56-.08-1-.31-1.44,1.72,2,4.43,2.95,5.5,5.64.25.63-.3,1.82,1,2,1.16-2.07,2-4.11,4.83-4.94,3.44-1,4.35-1.25,6.15,2.41.26.54.26,1.23.93,1.55,1.06-.91,2.13-1.82,1.61-3.47a3.25,3.25,0,0,0,1.88-1,1.77,1.77,0,0,1,2-.18,37,37,0,0,1,5.19,2.5,3.85,3.85,0,0,0,3,.57l-.07-.05c.57.46.2,1.44,1,1.8.49-.4.44-.94.5-1.43.31-2.47.33-5,2.82-6.6a1.69,1.69,0,0,0,.5-2,9.53,9.53,0,0,1-.58-3c-.34-2.84-2.19-4.31-4.58-5.37-4-1.78-7.74-.69-11.43,1a2.71,2.71,0,0,0-1.56,2.83c.18,3.71.26,7.44,1.5,11-.5-.57-.94,1.85-1.37.07a66.37,66.37,0,0,1-1.94-9.58,3.42,3.42,0,0,0-2.28-3.26c-4-1.55-8.27-2.38-12.33-.44a15.29,15.29,0,0,1-7.13,2,7.94,7.94,0,0,1-2.42-2.23c.3.1.6.2.88.32,2.8,1.18,5.26.72,7.94-.8,4.48-2.54,9.15-1.28,13.61.43a3.39,3.39,0,0,0,3.38-.33c5.28-3,10.68-4.21,16.14-.34a2,2,0,0,0,2.34.08,10.22,10.22,0,0,0,3.36-2.73c-1.43,4.12-2.65,8.27-2.5,12.72a43.38,43.38,0,0,1,6.09-9.72,4.13,4.13,0,0,0,.87-2,5,5,0,0,1,2.6-4.19c-2.17-.63-3.33.76-4.76,1.15,1.4-1.89,3.51-2.08,5.57-2.23,1.52-.11,3.37,1.89,3.29,3.42a10.54,10.54,0,0,1-.77,3.64,4.37,4.37,0,0,0-.09-2.94c-1.33.47-2.52.65-3.16,2-1.65,3.37-4.13,6.16-6.46,9.06a14.78,14.78,0,0,0-1.69,2.59c-.41.83.47.63.85.81l-.06-.09c-.33,3.69-3.12,5.67-5.66,7.86a10.34,10.34,0,0,0,2.24,1.77c1.36,1.06,3.35,1.25,4.14,3-.72.09-1.51-.44-2.17.24l0,0c-2.51-2.27-3.36-2.1-4.38.86a3.38,3.38,0,0,1-.5.75c.25-.89-.47-1.78,0-2.7,1.09-2,1.05-2.21-.55-3.47a11.68,11.68,0,0,0-4.59-2c-.25,1.65.14,3.32-1.19,4.45.12-1.67.21-3.33.34-5,.09-1.17-.19-2-1.49-2.37a9.72,9.72,0,0,1-1.7-.79c-1.7-.81-2.2-.53-2.1,1.45s-1.4,3.26-1.09,5.1c-2.1.29-1.34,1.52-1,2.74.12.39-.28.93-.45,1.4a37.93,37.93,0,0,1-3.06-8c-.7-2.62-2.46-3.37-4.65-1.81a10.19,10.19,0,0,0-2.67,2c.6,1.87,2,3.26,2.66,5s2.92,2,3.44,4c.46,1.8,2.14,3,3.35,4.4a2.93,2.93,0,0,0,.77.48c-1.08-.61-2.38-.57-3.47-1.29a3.54,3.54,0,0,0-3.81-.28c-1.49,1-.11,2.42.15,3.64-1.2-1.95-3.24-3.25-4.12-5.44,2,1.73,2.52,1.54,5.39-1.87a5.08,5.08,0,0,1-2.66-2.84,11.55,11.55,0,0,0-1.6-2.65,1.77,1.77,0,0,0-1.83-.89,3.64,3.64,0,0,0-2.65,4.3c.15.76.75,1.22,1,1.9l-3-.89c-.5-.15-1.2-.37-1.33.23-.37,1.7-2,1.94-3,2.88-1.39,1.28-1.44,1.4.08,2.75.21.19.55.21.4.6-.79,2,.85,1.87,2,2.18,1.52.41,3.35.25,4.1,2.17A5.93,5.93,0,0,1,228.53,230Zm33.31-22.59a.61.61,0,0,0,.52-.66c0-.56-.19-1-.83-1.1-.27,0-.74-.07-.6.33s0,1.34.91,1.43Z"/><path id="Tracciato_17420" data-name="Tracciato 17420" d="M202.19,253.24c.63-1.83.26-4,1.71-5.56a1.69,1.69,0,0,0,.13-1.21c-.9-5.08-.37-10.17-.07-15.27a8.38,8.38,0,0,1,2.37-5.65c1.57-1.56,1.56-3.08,1-5.11-.9-3.08-1.51-6.32.52-9.31l-.07,0c.11.29.39.65.3.86-.87,2.23-.3,4.41.08,6.62.48,2.78,1.54,4.1,4.31,4.5A18.29,18.29,0,0,1,217.6,225c.64.3,1,.72.73,1.47l0-.09c-2.14-.64-3.88-2.22-6.24-2.42a5.68,5.68,0,0,0-6.26,4.92c-.08.78.34,1.43.33,2.14s-.42,1.5-.25,2.14c.36,1.31-1.71-.3-1.13,1.05a16,16,0,0,1,.79,2c.06.24-.16.57-.27.85a7.13,7.13,0,0,0-.33,4.28,12.52,12.52,0,0,1-.06,3.35c-.1,1.63,2.23,1,2.29,2.53s1.17.32,1.76.54c.75.29,0,1.83,1.31,1.59a3.93,3.93,0,0,0,.58-.19c-2.85,1.49-6,2.32-8.78,4Z"/><path id="Tracciato_17421" data-name="Tracciato 17421" d="M273.79,198.42c-1.08,2.2-.56,4,1.29,5.52.71.6,1.3,1.35,2,2a9.27,9.27,0,0,1,3,8.75c-.29,1.55-.16,2.47,1.4,3.47,2.14,1.37,3.06,3.87,3.84,6.26a24.57,24.57,0,0,1,1.09,4.21,6.46,6.46,0,0,0,5.25,5.76c.41.11.8.19,1,.64l.05-.08a19,19,0,0,0-8.78.41c-1.42.46-2.88,1.13-4.48.84l.06.09c.05-.49.37-.69.8-.83,1.19-.37,2.42-.68,3.6-1,2-.47-.25-2.24,1.14-2.76.78-.29.46-1,.33-1.6-.36-1.72-.59-3.47-.91-5.21a9.27,9.27,0,0,0-3.31-5.18c-.93-.82-2.38-1.38-3.35-.33-1.54,1.64-3.66,2.32-5.36,3.7a6.88,6.88,0,0,1-4.27,1.73c2.1-2,4.53-2.85,6.35-4.51,2.84-2.59,5.72-5,4.22-9.72a9,9,0,0,0-8.52-6.47c-1.59,0-3,1.1-4.6.65l.05.09a24.08,24.08,0,0,0,7.39-6A3.37,3.37,0,0,1,273.79,198.42Z"/><path id="Tracciato_17422" data-name="Tracciato 17422" d="M199.66,255.77a2.69,2.69,0,0,1,2.53-2.52l-.08-.08a7.71,7.71,0,0,1-2.53,2.52Z"/><path id="Tracciato_17423" data-name="Tracciato 17423" d="M268.16,188.45a5.71,5.71,0,0,1-2.3,2A3.93,3.93,0,0,1,268.16,188.45Z"/><path id="Tracciato_17424" data-name="Tracciato 17424" d="M233.47,273.31c1.1-.06,2,.76,3.19.59.57-.07.59.11-.15,1.37a1.75,1.75,0,0,1-2,0,3.34,3.34,0,0,1-1-2Z"/><path id="Tracciato_17425" data-name="Tracciato 17425" d="M239.66,257.12a4.19,4.19,0,0,1-.22,2.66c-.79-1.47-.79-1.47.34-2.57Z"/><path id="Tracciato_17426" data-name="Tracciato 17426" d="M220.92,221.52a6.25,6.25,0,0,1-.86.18c-.71.05-1.45.11-1.66-.81,0-.12.21-.3.32-.46.63.53,2.23-.68,2.1,1.19Z"/><path id="Tracciato_17427" data-name="Tracciato 17427" d="M215.68,253.16a3.33,3.33,0,0,1-1.63,2.29C214,254.29,214.81,253.7,215.68,253.16Z"/><path id="Tracciato_17428" data-name="Tracciato 17428" d="M213.41,217.6c.52.15,1.31.41,1.29,1.46,0,.47-.31.82-.77.74a1.63,1.63,0,0,1-1.41-1.72C212.51,217.77,212.72,217.51,213.41,217.6Z"/><path id="Tracciato_17429" data-name="Tracciato 17429" d="M219,205.42a13,13,0,0,1,4,2C221.22,207.54,220.09,206.49,219,205.42Z"/><path id="Tracciato_17430" data-name="Tracciato 17430" d="M217.64,229.88c1.47-.3,1.94.35,2.85.86C219,231.61,218.43,230.93,217.64,229.88Z"/><path id="Tracciato_17431" data-name="Tracciato 17431" d="M212,231.2a.56.56,0,0,1-.45-.65.07.07,0,0,1,0-.05c.08-.65.56-.82,1.11-.77a.54.54,0,0,1,.47.61.13.13,0,0,1,0,.06C213,231.05,212.3,230.85,212,231.2Z"/><path id="Tracciato_17432" data-name="Tracciato 17432" d="M218.33,226.48c1.55-1.7,1.93.83,3,.76a3.28,3.28,0,0,1-3-.86Z"/><path id="Tracciato_17433" data-name="Tracciato 17433" d="M217,229.42c.38.28.33.66.23,1.05a4.16,4.16,0,0,1-.23.54c-.54-.3-.35-.8-.34-1.24C216.67,229.65,216.88,229.54,217,229.42Z"/><path id="Tracciato_17434" data-name="Tracciato 17434" d="M215.26,229.75c-.37-.06-.93,0-.93-.5s.44-.13.68-.12.59-.37.74.05S215.65,229.75,215.26,229.75Z"/><path id="Tracciato_17435" data-name="Tracciato 17435" d="M215.7,219.86c0,.16,0,.31,0,.46a3.59,3.59,0,0,1-.11-.57,1.62,1.62,0,0,1,.07-.44C215.65,219.49,215.68,219.68,215.7,219.86Z"/><path id="Tracciato_17436" data-name="Tracciato 17436" d="M233.83,261.54c-1.44-2.29.69-3.53,1.42-5.18a15.4,15.4,0,0,1-1.51,5.13Z"/><path id="Tracciato_17437" data-name="Tracciato 17437" d="M222.72,265.43c.4-1.09,1.82-.69,2.3-1.9C225.32,266,225.22,266.06,222.72,265.43Z"/><path id="Tracciato_17438" data-name="Tracciato 17438" d="M245.51,271.9c.21-.23.32-.38.34-.36.92.47.72-1.5,1.73-.78.07.05.17.17.15.23C247.45,272,246.63,271.94,245.51,271.9Z"/><path id="Tracciato_17439" data-name="Tracciato 17439" d="M219.13,262.49c-1-.19-1.6-.28-1.76-1a.5.5,0,0,1,.27-.43C218.45,261,218.47,261.77,219.13,262.49Z"/><path id="Tracciato_17440" data-name="Tracciato 17440" d="M249.3,265c-.13.26-.37.55-.62.31a1.56,1.56,0,0,1-.46-1c0-.33.39-.39.67-.26a.73.73,0,0,1,.43.93Z"/><path id="Tracciato_17441" data-name="Tracciato 17441" d="M237.64,268.26c.32-.07.64-.07.72.32s-.06.65-.48.51a3.47,3.47,0,0,1-.72-.48Z"/><path id="Tracciato_17442" data-name="Tracciato 17442" d="M275.57,224.25c.58-1.45,2.08-1.6,3.23-2.1s2.17.19,2.82,2c-2.32-1.8-4.13.12-6.13,0Z"/><path id="Tracciato_17443" data-name="Tracciato 17443" d="M273.2,217.17c.6-.72.28-1.52,1.66-1.74C274.31,216.08,274.36,216.74,273.2,217.17Z"/><path id="Tracciato_17444" data-name="Tracciato 17444" d="M270.37,207.79l-.63-.23a3.88,3.88,0,0,1,.68-.53c.25-.11.64-.14.55.29C270.92,207.52,270.55,207.65,270.37,207.79Z"/><path id="Tracciato_17445" data-name="Tracciato 17445" d="M269.11,221.21c.38-1.17-.86-1.68-1.07-2.61C270.18,219.61,270.3,219.9,269.11,221.21Z"/><path id="Tracciato_17446" data-name="Tracciato 17446" d="M268.15,218.71c-.79-.25-1.64-.44-2-1.34C267.52,216.78,267.78,217.82,268.15,218.71Z"/><path id="Tracciato_17447" data-name="Tracciato 17447" d="M263.77,234.37a5.63,5.63,0,0,1-1.22.19,1.59,1.59,0,0,0-1.77,1.38v0a2,2,0,0,0,.67,2.24c.55.43,1.52.29,1.69,1.22a2.57,2.57,0,0,1-.62.08c-.56-.07-.92,1.54-1.8-.1-1.37-2.58-4.87-2.69-7.05-.58-.95-.61-.94-1.36,0-1.84a6,6,0,0,1,1.61-.73c2.18-.24,3.35-1.78,4.65-3.2C261.05,233.91,262.67,233.38,263.77,234.37Z"/><path id="Tracciato_17448" data-name="Tracciato 17448" d="M279.35,249.14c1.6.46.9,1.68.7,2.55-.68,3-2.46,3.59-4.71,1.52A14.14,14.14,0,0,1,273.9,251c3.31,1.88,4.5.23,5.46-1.84Z"/><path id="Tracciato_17449" data-name="Tracciato 17449" d="M269.65,246.08c.26-1-.8-1.55-.91-2.4a.82.82,0,0,1,.74-.82.46.46,0,0,1,.52.4.76.76,0,0,1,0,.15c-.09.9-.22,1.79-.34,2.68Z"/><path id="Tracciato_17450" data-name="Tracciato 17450" d="M281.68,244.51a.85.85,0,0,1-.86.64c-.48,0-.68-.35-.65-.79s.48-.56.87-.57S281.73,244,281.68,244.51Z"/><path id="Tracciato_17451" data-name="Tracciato 17451" d="M270.89,245.94c-.5-.82-.37-1.65-.06-3,.46,1.33.62,2.14,0,2.94Z"/><path id="Tracciato_17452" data-name="Tracciato 17452" d="M279.37,249.14a7,7,0,0,1,.36-1.4c.14-.3.46-.73.9-.33a.51.51,0,0,1,0,.71l-.1.07c-.38.33-.78.64-1.17.95Z"/><path id="Tracciato_17453" data-name="Tracciato 17453" d="M242.15,224.24c2.49,1.5,3.74,4.09,6.12,5.3.31,3.24,2.11,6.14,2.3,10-2.24-2.53-4.71-4.54-5.48-7.15S242.05,227.67,242.15,224.24Z"/><path id="Tracciato_17454" data-name="Tracciato 17454" d="M250.86,218.62c-.51.87-.41,1.6.63,1.88a11.31,11.31,0,0,1,4.09,2.52c-.88,2.37-1.33,4.94-3.41,6.85,1.5,1.24,3.25.26,4.35,1.36a10.06,10.06,0,0,1-3.94-.16c-.93-.31-1.37-.77-.81-1.82a5.46,5.46,0,0,0-.1-5.82c-.95-1.51-1.6-1.77-3.71-1.28C248.73,220.81,249,219.07,250.86,218.62Z"/><path id="Tracciato_17455" data-name="Tracciato 17455" d="M235.47,240.06c-1.12-.12-1.43-1.05-1.76-1.87s-.66-1.23-1.48-1.29c2-2,3.13-4.62,4.82-6.84.54-.7.95-1.33,1.89-1.38-1.07.68-1.2,1.88-1.6,2.93-.29.77-.18,1.66-.78,2.34-.75.85-1.91,1.66-2.07,2.63S235.41,238.8,235.47,240.06Z"/><path id="Tracciato_17456" data-name="Tracciato 17456" d="M243.28,238.82a4.24,4.24,0,0,1-.8-.94c-.57-1.44-1.34-.95-2.13-.26-1,.86-1.52,2.32-3.1,2.44,1.71-1.42,2.71-3.54,4.86-4.7C243.19,236.2,242.58,237.76,243.28,238.82Z"/><path id="Tracciato_17457" data-name="Tracciato 17457" d="M233.49,242c.26-1,1.66-1,1.91-2h2A8.46,8.46,0,0,1,233.49,242Z"/><path id="Tracciato_17458" data-name="Tracciato 17458" d="M256.76,231.49c.84,1,2.32.8,3.25,1.65C258.7,233,257,233.69,256.76,231.49Z"/><path id="Tracciato_17459" data-name="Tracciato 17459" d="M239.18,228.44a4.51,4.51,0,0,0-1-2.28C239.1,226.68,240.6,226.94,239.18,228.44Z"/><path id="Tracciato_17460" data-name="Tracciato 17460" d="M258.72,270.23a4.77,4.77,0,0,1-2-3.27C258.23,267.55,258.61,268.81,258.72,270.23Z"/><path id="Tracciato_17461" data-name="Tracciato 17461" d="M269.68,256.47a5.68,5.68,0,0,1,.39,1.14c.05.4-.27.45-.54.28a.62.62,0,0,1-.34-.81.54.54,0,0,1,.11-.18C269.4,256.76,269.52,256.65,269.68,256.47Z"/><path id="Tracciato_17462" data-name="Tracciato 17462" d="M260.6,272.74c-1.25-.44-1.51-1.62-2-2.64C259.39,270.9,260.76,271.24,260.6,272.74Z"/><path id="Tracciato_17463" data-name="Tracciato 17463" d="M256.84,267.08a5,5,0,0,1-2-2.63A4.76,4.76,0,0,1,256.84,267.08Z"/><path id="Tracciato_17464" data-name="Tracciato 17464" d="M266.53,253.35c.91.37,1.47,1.16,1.28,1.4-.47.58-.8-.05-1-.5S266.6,253.65,266.53,253.35Z"/><path id="Tracciato_17465" data-name="Tracciato 17465" d="M242.74,251.05c-1,.22-2,.88-2.36-.56a1,1,0,0,1,.74-1.25,1.24,1.24,0,0,1,.27,0C242.65,249.17,242,250.55,242.74,251.05Z"/><path id="Tracciato_17466" data-name="Tracciato 17466" d="M263.5,225.64c-1.15.9-2.33,1.66-3.89,1.05,1-1.72,2.59-.74,3.89-1Z"/><path id="Tracciato_17467" data-name="Tracciato 17467" d="M255.5,223.11c.25-.91-.64-1.39-.9-2.31a2.24,2.24,0,0,1,2.11.65l-.1-.1C256.8,222.29,256.27,222.78,255.5,223.11Z"/><path id="Tracciato_17468" data-name="Tracciato 17468" d="M256.62,221.35l.1.1c.19-1.55,1.4-1.91,2.64-2.21C258.8,220.4,258.07,221.36,256.62,221.35Z"/><path id="Tracciato_17469" data-name="Tracciato 17469" d="M264.1,217.7a1.19,1.19,0,0,0-1.08,1,.65.65,0,0,1-.74.55.48.48,0,0,1-.2-.07.53.53,0,0,1-.38-.64s0-.05,0-.07c.1-.38,0-.94.58-.95a11.46,11.46,0,0,1,1.84.25S264.1,217.7,264.1,217.7Z"/><path id="Tracciato_17470" data-name="Tracciato 17470" d="M233.25,228.21a1.36,1.36,0,0,1-1,1c-.48.19-.49-.23-.46-.5,0-.48,0-1.07.79-1A.62.62,0,0,1,233.25,228.21Z"/><path id="Tracciato_17471" data-name="Tracciato 17471" d="M224.82,234c.42.22.42.62.39,1s-.16.66-.48.28a2.61,2.61,0,0,1-.36-1.08A2.16,2.16,0,0,1,224.82,234Z"/><path id="Tracciato_17472" data-name="Tracciato 17472" d="M231.6,218.61c1.31,0,1.7,1.1,2.3,2C232.73,220.39,232.31,219.32,231.6,218.61Z"/><path id="Tracciato_17473" data-name="Tracciato 17473" d="M232.37,236.84c-.81.64-2.06.6-2.61,1.65C229.9,236.78,231.15,236.84,232.37,236.84Z"/><path id="Tracciato_17474" data-name="Tracciato 17474" d="M238.14,197.68a1.79,1.79,0,0,1,1.05,1c.08.2-.16.43-.34.32a3.69,3.69,0,0,1-.87-.8C237.92,198.12,238.08,197.87,238.14,197.68Z"/><path id="Tracciato_17475" data-name="Tracciato 17475" d="M258.48,198.69c2.22,2.28.87,4.18-.5,6.09C257.89,202.75,259.81,200.89,258.48,198.69Z"/><path id="Tracciato_17476" data-name="Tracciato 17476" d="M257.53,209.27c-.13-.15-.27-.3-.39-.46-.58-.79-.15-1.39.45-1.82.32-.23.41.31.58.52.8,1,.26,1.45-.71,1.72Z"/><path id="Tracciato_17477" data-name="Tracciato 17477" d="M253.06,215.45c.06,1.06-.15,2-1.32,2.3A2.3,2.3,0,0,1,253.06,215.45Z"/></g></g></svg>